<svg width="79" height="12" viewBox="0 0 79 12" fill="#000" xmlns="http://www.w3.org/2000/svg">
<path d="M6.20117 9.08008V10H1.68359V9.08008H6.20117ZM1.91211 1.46875V10H0.78125V1.46875H1.91211ZM5.60352 5.13672V6.05664H1.68359V5.13672H5.60352ZM6.14258 1.46875V2.39453H1.68359V1.46875H6.14258ZM8.73242 1.46875V10H7.60156V1.46875H8.73242ZM12.3066 5.30664V6.23242H8.48633V5.30664H12.3066ZM12.8867 1.46875V2.39453H8.48633V1.46875H12.8867ZM19.6543 9.08008V10H15.1367V9.08008H19.6543ZM15.3652 1.46875V10H14.2344V1.46875H15.3652ZM19.0566 5.13672V6.05664H15.1367V5.13672H19.0566ZM19.5957 1.46875V2.39453H15.1367V1.46875H19.5957ZM21.7871 1.46875L23.8379 4.73828L25.8887 1.46875H27.207L24.5117 5.69336L27.2715 10H25.9414L23.8379 6.66602L21.7344 10H20.4043L23.1641 5.69336L20.4688 1.46875H21.7871ZM34.3027 9.08008V10H28.5254V9.08008H34.3027ZM34.1152 2.28906L28.7949 10H28.0977V9.15625L33.4121 1.46875H34.1152V2.28906ZM33.6348 1.46875V2.39453H28.1738V1.46875H33.6348ZM36.9863 1.46875V10H35.8555V1.46875H36.9863ZM43.9238 1.46875H45.0488V7.24023C45.0488 7.88086 44.9062 8.41406 44.6211 8.83984C44.3359 9.26562 43.957 9.58594 43.4844 9.80078C43.0156 10.0117 42.5059 10.1172 41.9551 10.1172C41.377 10.1172 40.8535 10.0117 40.3848 9.80078C39.9199 9.58594 39.5508 9.26562 39.2773 8.83984C39.0078 8.41406 38.873 7.88086 38.873 7.24023V1.46875H39.9922V7.24023C39.9922 7.68555 40.0742 8.05273 40.2383 8.3418C40.4023 8.63086 40.6309 8.8457 40.9238 8.98633C41.2207 9.12695 41.5645 9.19727 41.9551 9.19727C42.3496 9.19727 42.6934 9.12695 42.9863 8.98633C43.2832 8.8457 43.5137 8.63086 43.6777 8.3418C43.8418 8.05273 43.9238 7.68555 43.9238 7.24023V1.46875ZM47.1816 1.46875H48.2773L51.0723 8.42383L53.8613 1.46875H54.9629L51.4941 10H50.6387L47.1816 1.46875ZM46.8242 1.46875H47.791L47.9492 6.67188V10H46.8242V1.46875ZM54.3477 1.46875H55.3145V10H54.1895V6.67188L54.3477 1.46875ZM65.0645 4.28711V5.23047H60.1777V4.28711H65.0645ZM65.0645 6.71875V7.66211H60.1777V6.71875H65.0645ZM69.8223 0.0859375V1.87305H68.9434V0.0859375H69.8223ZM69.7168 9.6543V11.2188H68.8438V9.6543H69.7168ZM70.8887 7.80273C70.8887 7.56836 70.8359 7.35742 70.7305 7.16992C70.625 6.98242 70.4512 6.81055 70.209 6.6543C69.9668 6.49805 69.6426 6.35352 69.2363 6.2207C68.7441 6.06836 68.3184 5.88281 67.959 5.66406C67.6035 5.44531 67.3281 5.17383 67.1328 4.84961C66.9414 4.52539 66.8457 4.13281 66.8457 3.67188C66.8457 3.19141 66.9492 2.77734 67.1562 2.42969C67.3633 2.08203 67.6562 1.81445 68.0352 1.62695C68.4141 1.43945 68.8594 1.3457 69.3711 1.3457C69.7695 1.3457 70.125 1.40625 70.4375 1.52734C70.75 1.64453 71.0137 1.82031 71.2285 2.05469C71.4473 2.28906 71.6133 2.57617 71.7266 2.91602C71.8438 3.25586 71.9023 3.64844 71.9023 4.09375H70.8242C70.8242 3.83203 70.793 3.5918 70.7305 3.37305C70.668 3.1543 70.5742 2.96484 70.4492 2.80469C70.3242 2.64062 70.1719 2.51563 69.9922 2.42969C69.8125 2.33984 69.6055 2.29492 69.3711 2.29492C69.043 2.29492 68.7715 2.35156 68.5566 2.46484C68.3457 2.57812 68.1895 2.73828 68.0879 2.94531C67.9863 3.14844 67.9355 3.38477 67.9355 3.6543C67.9355 3.9043 67.9863 4.12305 68.0879 4.31055C68.1895 4.49805 68.3613 4.66797 68.6035 4.82031C68.8496 4.96875 69.1875 5.11523 69.6172 5.25977C70.1211 5.41992 70.5488 5.60938 70.9004 5.82812C71.252 6.04297 71.5195 6.30859 71.7031 6.625C71.8867 6.9375 71.9785 7.32617 71.9785 7.79102C71.9785 8.29492 71.8652 8.7207 71.6387 9.06836C71.4121 9.41211 71.0938 9.67383 70.6836 9.85352C70.2734 10.0332 69.793 10.123 69.2422 10.123C68.9102 10.123 68.582 10.0781 68.2578 9.98828C67.9336 9.89844 67.6406 9.75195 67.3789 9.54883C67.1172 9.3418 66.9082 9.07031 66.752 8.73438C66.5957 8.39453 66.5176 7.97852 66.5176 7.48633H67.6074C67.6074 7.81836 67.6543 8.09375 67.748 8.3125C67.8457 8.52734 67.9746 8.69922 68.1348 8.82812C68.2949 8.95312 68.4707 9.04297 68.6621 9.09766C68.8574 9.14844 69.0508 9.17383 69.2422 9.17383C69.5938 9.17383 69.8906 9.11914 70.1328 9.00977C70.3789 8.89648 70.5664 8.73633 70.6953 8.5293C70.8242 8.32227 70.8887 8.08008 70.8887 7.80273ZM78.4004 4.28711V5.23047H73.5137V4.28711H78.4004ZM78.4004 6.71875V7.66211H73.5137V6.71875H78.4004Z" fill="white"/>
</svg>
